<?xml version="1.0" encoding="UTF-8"?>
<!DOCTYPE svg PUBLIC "-//W3C//DTD SVG 1.1//EN" "http://www.w3.org/Graphics/SVG/1.1/DTD/svg11.dtd">
<svg xmlns="http://www.w3.org/2000/svg" version="1.1" width="4168px" height="4168px" style="shape-rendering:geometricPrecision; text-rendering:geometricPrecision; image-rendering:optimizeQuality; fill-rule:evenodd; clip-rule:evenodd" xmlns:xlink="http://www.w3.org/1999/xlink">
<g><path style="opacity:0.967" fill="#402314" d="M 1876.5,807.5 C 1886.75,807.292 1890.91,812.292 1889,822.5C 1888.22,824.286 1887.05,825.786 1885.5,827C 1879.67,828.174 1874.83,831.007 1871,835.5C 1858.72,854.67 1851.39,875.67 1849,898.5C 1847.08,911.843 1847.08,925.177 1849,938.5C 1851.3,950.186 1854.13,961.686 1857.5,973C 1869.88,970.396 1875.71,975.23 1875,987.5C 1874.31,990.057 1872.81,991.891 1870.5,993C 1855.83,996.333 1841.17,999.667 1826.5,1003C 1813.69,1005.19 1808.86,1000.03 1812,987.5C 1814.72,984.269 1818.22,982.436 1822.5,982C 1823.29,980.915 1823.96,979.748 1824.5,978.5C 1819.29,938.571 1802.29,904.737 1773.5,877C 1767.39,871.555 1760.72,866.888 1753.5,863C 1746.76,859.916 1739.76,858.916 1732.5,860C 1726.44,857.037 1724.27,852.203 1726,845.5C 1726.78,843.714 1727.95,842.214 1729.5,841C 1754.72,833.378 1777.39,838.045 1797.5,855C 1806.83,864.18 1815.33,874.013 1823,884.5C 1825.52,864.598 1832.19,846.264 1843,829.5C 1851.68,818.307 1862.85,810.973 1876.5,807.5 Z"/></g>
<g><path style="opacity:0.965" fill="#402314" d="M 2313.5,825.5 C 2320.9,825.2 2328.23,825.7 2335.5,827C 2343.33,829.912 2351.33,832.245 2359.5,834C 2363.25,835.584 2365.25,838.417 2365.5,842.5C 2363.77,852.518 2361.94,862.518 2360,872.5C 2358.2,876.235 2355.2,877.902 2351,877.5C 2342.09,877.175 2338.59,872.675 2340.5,864C 2337.54,854.176 2330.88,849.843 2320.5,851C 2309.14,855.542 2305.98,863.375 2311,874.5C 2325.75,890.581 2339.75,907.248 2353,924.5C 2366.27,948.005 2365.61,971.005 2351,993.5C 2335.73,1009.93 2316.89,1016.43 2294.5,1013C 2253.56,1004.6 2237.72,980.096 2247,939.5C 2251.6,928.904 2258.43,920.071 2267.5,913C 2276.87,909.016 2282.87,912.016 2285.5,922C 2285.09,924.321 2284.26,926.487 2283,928.5C 2267.11,941.921 2264.11,957.588 2274,975.5C 2288.66,988.591 2304.16,989.757 2320.5,979C 2328.86,969.32 2330.7,958.487 2326,946.5C 2323.5,941.494 2320.5,936.827 2317,932.5C 2305.29,919.796 2293.96,906.796 2283,893.5C 2271.91,870.119 2276.08,849.953 2295.5,833C 2301.27,829.605 2307.27,827.105 2313.5,825.5 Z"/></g>
<g><path style="opacity:0.964" fill="#402314" d="M 2540.5,893.5 C 2547.62,893.284 2554.62,894.117 2561.5,896C 2590.25,908.806 2618.92,921.806 2647.5,935C 2655.62,938.114 2663.96,940.447 2672.5,942C 2676.33,945.308 2677.49,949.474 2676,954.5C 2672,963.167 2668,971.833 2664,980.5C 2659.03,984.326 2653.86,984.493 2648.5,981C 2647.3,980.097 2646.47,978.931 2646,977.5C 2645.23,973.174 2645.73,969.007 2647.5,965C 2647.17,964.167 2646.83,963.333 2646.5,962.5C 2637.02,957.654 2627.52,953.654 2618,950.5C 2602.61,984.953 2586.94,1019.29 2571,1053.5C 2570.01,1055.45 2569.68,1057.45 2570,1059.5C 2572.67,1061.5 2575.33,1063.5 2578,1065.5C 2580.97,1072.3 2579.47,1077.8 2573.5,1082C 2570.83,1082.67 2568.17,1082.67 2565.5,1082C 2550.83,1075.33 2536.17,1068.67 2521.5,1062C 2517.56,1056.4 2517.56,1050.73 2521.5,1045C 2526.58,1041.68 2531.58,1041.85 2536.5,1045.5C 2537.81,1044.69 2538.98,1043.69 2540,1042.5C 2555.89,1007.05 2572.06,971.714 2588.5,936.5C 2579.32,931.744 2569.99,927.244 2560.5,923C 2555.86,920.897 2551.02,919.397 2546,918.5C 2538.81,918.912 2534.48,922.578 2533,929.5C 2533.86,941.633 2528.36,946.133 2516.5,943C 2515.33,941.833 2514.17,940.667 2513,939.5C 2507.11,914.921 2516.28,899.587 2540.5,893.5 Z"/></g>
<g><path style="opacity:0.965" fill="#402314" d="M 1570.5,906.5 C 1575.13,905.7 1578.96,907.034 1582,910.5C 1586.33,919.167 1590.67,927.833 1595,936.5C 1595.37,947.102 1590.2,951.269 1579.5,949C 1576.76,945.639 1573.93,942.472 1571,939.5C 1561.28,943.942 1551.78,948.776 1542.5,954C 1560.13,988.756 1577.63,1023.59 1595,1058.5C 1597.28,1060.98 1599.78,1061.15 1602.5,1059C 1614.09,1057.92 1618.59,1063.09 1616,1074.5C 1600.12,1084.03 1583.62,1092.36 1566.5,1099.5C 1559.98,1098.85 1556.31,1095.18 1555.5,1088.5C 1556.33,1082.85 1559.5,1079.19 1565,1077.5C 1565.67,1075.83 1565.67,1074.17 1565,1072.5C 1548.23,1037.8 1531.07,1003.3 1513.5,969C 1501.37,974.061 1489.37,979.727 1477.5,986C 1466.49,995.353 1466.99,1004.19 1479,1012.5C 1481.63,1023.87 1477.13,1029.04 1465.5,1028C 1445.67,1017.17 1440.17,1001.34 1449,980.5C 1452.08,975.412 1455.92,970.912 1460.5,967C 1491.52,950.489 1522.85,934.489 1554.5,919C 1560.08,915.055 1565.42,910.888 1570.5,906.5 Z"/></g>
<g><path style="opacity:0.964" fill="#402314" d="M 1298.5,1023.5 C 1310.91,1023.22 1315.24,1028.89 1311.5,1040.5C 1296.51,1052.99 1292.67,1068.33 1300,1086.5C 1303.34,1093.85 1307.67,1100.52 1313,1106.5C 1329.67,1125.17 1346.33,1143.83 1363,1162.5C 1386.22,1199.57 1380.38,1231.41 1345.5,1258C 1313.74,1278.22 1284.58,1275.05 1258,1248.5C 1239.83,1227.67 1221.67,1206.83 1203.5,1186C 1201.02,1186.75 1198.69,1188.08 1196.5,1190C 1184.83,1191 1180.33,1185.83 1183,1174.5C 1194.83,1164 1206.67,1153.5 1218.5,1143C 1227.08,1140.79 1232.41,1143.95 1234.5,1152.5C 1233.81,1157.38 1231.48,1161.22 1227.5,1164C 1245.04,1183.2 1262.21,1202.7 1279,1222.5C 1289.29,1235.9 1302.79,1242.06 1319.5,1241C 1341.75,1233.76 1351.25,1218.6 1348,1195.5C 1346.61,1191.71 1344.94,1188.05 1343,1184.5C 1324.33,1163.17 1305.67,1141.83 1287,1120.5C 1266.26,1093.44 1265.26,1065.77 1284,1037.5C 1288.73,1032.6 1293.56,1027.94 1298.5,1023.5 Z"/></g>
<g><path style="opacity:0.963" fill="#402314" d="M 2827.5,1044.5 C 2830.79,1044.26 2833.79,1045.09 2836.5,1047C 2847.17,1055.67 2857.83,1064.33 2868.5,1073C 2874.53,1080.43 2873.53,1086.76 2865.5,1092C 2860.1,1093.22 2855.6,1091.72 2852,1087.5C 2832.62,1110.54 2813.62,1133.88 2795,1157.5C 2781.91,1184.57 2789.41,1203.4 2817.5,1214C 2833.27,1216.2 2846.11,1211.03 2856,1198.5C 2871,1179.83 2886,1161.17 2901,1142.5C 2931.93,1108.28 2965.27,1105.61 3001,1134.5C 3004.37,1145.79 3000.21,1151.29 2988.5,1151C 2972.77,1137.39 2956.1,1136.05 2938.5,1147C 2933.03,1151.47 2927.87,1156.3 2923,1161.5C 2908,1180.17 2893,1198.83 2878,1217.5C 2846.35,1249.47 2813.51,1250.64 2779.5,1221C 2754.3,1194.91 2751.13,1166.41 2770,1135.5C 2788.33,1113.17 2806.67,1090.83 2825,1068.5C 2824.74,1065.18 2823.07,1062.51 2820,1060.5C 2817.98,1052.87 2820.48,1047.54 2827.5,1044.5 Z"/></g>
<g><path style="opacity:0.984" fill="#d6ae9b" d="M 2503.5,1262.5 C 2521.95,1259.98 2535.78,1266.64 2545,1282.5C 2546.51,1287.75 2546.84,1293.08 2546,1298.5C 2487.41,1416.26 2439.41,1538.26 2402,1664.5C 2369.28,1774.7 2340.95,1886.03 2317,1998.5C 2305.64,2052.14 2294.47,2105.8 2283.5,2159.5C 2337.95,2168.67 2391.28,2164.17 2443.5,2146C 2493.73,2126.11 2534.23,2093.94 2565,2049.5C 2572.33,2038.17 2579.67,2026.83 2587,2015.5C 2596.85,2003.26 2608.35,2001.42 2621.5,2010C 2626.98,2017.05 2628.48,2024.89 2626,2033.5C 2585.31,2118.29 2519.48,2173.13 2428.5,2198C 2377.53,2210.86 2325.86,2215.02 2273.5,2210.5C 2249.92,2340.92 2221.42,2470.26 2188,2598.5C 2165.59,2683.39 2136.26,2765.72 2100,2845.5C 2077.84,2893.21 2050.17,2937.21 2017,2977.5C 1991.2,3007.47 1960.7,3031.3 1925.5,3049C 1853.97,3079.5 1788.3,3070.16 1728.5,3021C 1686.89,2981.67 1656.39,2934.84 1637,2880.5C 1603.61,2790.93 1596.28,2699.26 1615,2605.5C 1632.07,2507.06 1671.07,2418.72 1732,2340.5C 1819.53,2236.79 1931.03,2175.29 2066.5,2156C 2115.41,2149.68 2164.41,2147.85 2213.5,2150.5C 2239.77,2015.3 2269.94,1880.96 2304,1747.5C 2330.76,1645.22 2363.1,1544.88 2401,1446.5C 2349.11,1491.07 2294.94,1532.57 2238.5,1571C 2183.84,1607.33 2128.51,1642.67 2072.5,1677C 1954.67,1746.75 1837,1816.75 1719.5,1887C 1651.87,1928.65 1585.87,1972.65 1521.5,2019C 1466.77,2058.71 1415.93,2103.21 1369,2152.5C 1340.57,2183.34 1316.57,2217.34 1297,2254.5C 1259.9,2331.26 1262.9,2406.59 1306,2480.5C 1323.69,2508.86 1343.69,2535.53 1366,2560.5C 1371.45,2570.87 1370.28,2580.37 1362.5,2589C 1352.18,2594.95 1342.18,2594.28 1332.5,2587C 1296.57,2551.39 1268.07,2510.56 1247,2464.5C 1211.48,2378.33 1216.15,2294.33 1261,2212.5C 1282.8,2174.69 1308.47,2139.69 1338,2107.5C 1371.7,2072.46 1407.2,2039.63 1444.5,2009C 1508.94,1958.56 1575.61,1911.23 1644.5,1867C 1684,1842.08 1723.67,1817.42 1763.5,1793C 1869.33,1730.25 1975,1667.25 2080.5,1604C 2166.95,1551.79 2250.28,1495.12 2330.5,1434C 2380.48,1395.03 2426.31,1351.53 2468,1303.5C 2477.56,1290.21 2487.73,1277.38 2498.5,1265C 2500.31,1264.24 2501.98,1263.41 2503.5,1262.5 Z M 2136.5,2199.5 C 2159.23,2199.67 2181.89,2200.84 2204.5,2203C 2183.55,2318.07 2158.39,2432.23 2129,2545.5C 2104.55,2640.86 2072.55,2733.52 2033,2823.5C 2013.54,2867.13 1989.54,2907.8 1961,2945.5C 1942.82,2969.02 1920.99,2988.19 1895.5,3003C 1864.65,3018.48 1833.31,3019.48 1801.5,3006C 1766.92,2989.76 1738.76,2965.92 1717,2934.5C 1686.26,2886.64 1667.59,2834.31 1661,2777.5C 1646.72,2627.92 1684.39,2493.25 1774,2373.5C 1853.86,2273.3 1958.02,2216.47 2086.5,2203C 2103.3,2201.45 2119.96,2200.28 2136.5,2199.5 Z"/></g>
<g><path style="opacity:0.967" fill="#402314" d="M 3043.5,1272.5 C 3058.28,1271.27 3071.28,1275.44 3082.5,1285C 3092.79,1294.95 3101.96,1305.79 3110,1317.5C 3121.79,1334.64 3132.79,1352.3 3143,1370.5C 3158.35,1420.96 3142.19,1457.46 3094.5,1480C 3053.4,1493.19 3020.24,1482.36 2995,1447.5C 2980.75,1427.34 2966.75,1407.01 2953,1386.5C 2952.12,1376.72 2956.62,1372.22 2966.5,1373C 2970.01,1374.36 2972.68,1376.69 2974.5,1380C 2975.83,1380.67 2977.17,1380.67 2978.5,1380C 3010,1357.83 3041.5,1335.67 3073,1313.5C 3069.25,1306.76 3063.75,1301.59 3056.5,1298C 3049.97,1295.43 3043.31,1294.93 3036.5,1296.5C 3029.91,1295.24 3026.58,1291.24 3026.5,1284.5C 3026.76,1281.97 3027.6,1279.64 3029,1277.5C 3033.65,1274.97 3038.48,1273.31 3043.5,1272.5 Z M 3092.5,1339.5 C 3099.56,1348.59 3106.39,1357.92 3113,1367.5C 3126.97,1394.45 3122.14,1417.62 3098.5,1437C 3082.57,1450.64 3064.24,1455.98 3043.5,1453C 3035.5,1450.25 3028.33,1446.08 3022,1440.5C 3013.71,1429.42 3005.54,1418.26 2997.5,1407C 3029.35,1384.64 3061.01,1362.14 3092.5,1339.5 Z"/></g>
<g><path style="opacity:0.968" fill="#402314" d="M 1036.5,1365.5 C 1046.59,1365.86 1056.59,1367.02 1066.5,1369C 1097.83,1377 1129.17,1385 1160.5,1393C 1177.9,1397.55 1195.57,1399.22 1213.5,1398C 1226.53,1397.07 1237.03,1391.57 1245,1381.5C 1248.41,1370.71 1254.91,1368.21 1264.5,1374C 1266.05,1376.1 1267.05,1378.43 1267.5,1381C 1262.14,1405.36 1247.48,1421.02 1223.5,1428C 1201.46,1432.72 1179.46,1432.39 1157.5,1427C 1147.94,1424.73 1138.44,1422.23 1129,1419.5C 1120.02,1431.46 1111.52,1443.79 1103.5,1456.5C 1109.81,1465.97 1116.31,1475.3 1123,1484.5C 1130.03,1477.67 1136.36,1478.33 1142,1486.5C 1142.67,1489.17 1142.67,1491.83 1142,1494.5C 1133.67,1507.17 1125.33,1519.83 1117,1532.5C 1109.75,1536.97 1103.75,1535.64 1099,1528.5C 1098.33,1526.17 1098.33,1523.83 1099,1521.5C 1102.61,1516.86 1103.27,1511.86 1101,1506.5C 1076.83,1470.33 1052.67,1434.17 1028.5,1398C 1022.16,1397.92 1016.99,1400.42 1013,1405.5C 1009.64,1411.93 1006.47,1418.43 1003.5,1425C 997.143,1427.69 991.643,1426.52 987,1421.5C 987.522,1388.49 1004.02,1369.82 1036.5,1365.5 Z M 1065.5,1403.5 C 1065.56,1402.96 1065.89,1402.62 1066.5,1402.5C 1078.06,1405.97 1089.72,1408.97 1101.5,1411.5C 1097.86,1419.45 1093.19,1426.78 1087.5,1433.5C 1080.5,1423.18 1073.16,1413.18 1065.5,1403.5 Z"/></g>
<g><path style="opacity:0.965" fill="#402314" d="M 3231.5,1574.5 C 3243.95,1573.64 3253.79,1578.31 3261,1588.5C 3271.33,1608.5 3281.67,1628.5 3292,1648.5C 3293.32,1656.69 3289.82,1661.36 3281.5,1662.5C 3276.14,1662.31 3272.64,1659.64 3271,1654.5C 3267.23,1651.42 3263.06,1651.25 3258.5,1654C 3223.25,1667.86 3187.91,1681.53 3152.5,1695C 3151.11,1695.96 3150.44,1697.29 3150.5,1699C 3153.75,1713.26 3148.41,1718.42 3134.5,1714.5C 3133.67,1713.5 3132.83,1712.5 3132,1711.5C 3126.33,1696.83 3120.67,1682.17 3115,1667.5C 3114.12,1657.72 3118.62,1653.22 3128.5,1654C 3130.08,1654.71 3131.58,1655.54 3133,1656.5C 3134.12,1659.25 3135.62,1661.75 3137.5,1664C 3139.17,1664.67 3140.83,1664.67 3142.5,1664C 3178.5,1650 3214.5,1636 3250.5,1622C 3247.19,1615.88 3244.02,1609.71 3241,1603.5C 3237.19,1599.48 3234.02,1599.98 3231.5,1605C 3235.47,1617.06 3231.13,1622.39 3218.5,1621C 3212.24,1615.93 3209.24,1609.26 3209.5,1601C 3210.48,1586.86 3217.81,1578.03 3231.5,1574.5 Z"/></g>
<g><path style="opacity:0.964" fill="#402314" d="M 1014.5,1629.5 C 1017.79,1629.26 1020.79,1630.09 1023.5,1632C 1033.24,1640.29 1043.07,1648.45 1053,1656.5C 1053.81,1658.42 1054.31,1660.42 1054.5,1662.5C 1044.44,1691.85 1034.27,1721.18 1024,1750.5C 1022.26,1756.39 1019.76,1761.89 1016.5,1767C 1010.84,1769.33 1005.67,1768.5 1001,1764.5C 999.88,1759.02 999.38,1753.52 999.5,1748C 961.65,1734.49 923.817,1720.99 886,1707.5C 883.103,1709.77 881.103,1712.77 880,1716.5C 874.173,1720.53 868.506,1720.2 863,1715.5C 861.517,1712.3 861.183,1708.96 862,1705.5C 867.333,1690.17 872.667,1674.83 878,1659.5C 879.325,1653.22 880.325,1646.88 881,1640.5C 883.633,1635.27 887.799,1633.44 893.5,1635C 901.833,1638 910.167,1641 918.5,1644C 926.173,1649.77 926.506,1656.1 919.5,1663C 915.122,1664.9 910.788,1664.73 906.5,1662.5C 905.558,1662.61 904.725,1662.94 904,1663.5C 901.826,1668.01 900.493,1672.68 900,1677.5C 914.199,1683.4 928.699,1688.4 943.5,1692.5C 946.91,1682.6 949.91,1672.6 952.5,1662.5C 943.874,1660.24 941.374,1654.91 945,1646.5C 947.785,1642.36 951.618,1640.86 956.5,1642C 966.833,1645.67 977.167,1649.33 987.5,1653C 994.259,1656.27 996.092,1661.43 993,1668.5C 991.773,1670.73 989.939,1672.23 987.5,1673C 983.812,1673.45 980.146,1673.28 976.5,1672.5C 973.666,1682.17 970.332,1691.67 966.5,1701C 980.351,1706.45 994.351,1711.62 1008.5,1716.5C 1014.6,1701.69 1019.6,1686.53 1023.5,1671C 1023.18,1666.9 1022.02,1663.07 1020,1659.5C 1016.37,1654.87 1012.37,1650.53 1008,1646.5C 1005.38,1638.85 1007.54,1633.19 1014.5,1629.5 Z"/></g>
<g><path style="opacity:0.968" fill="#402314" d="M 3258.5,1842.5 C 3294.6,1838.12 3322.77,1850.79 3343,1880.5C 3344.86,1887.62 3342.36,1892.45 3335.5,1895C 3347.15,1904.79 3354.32,1917.29 3357,1932.5C 3363.97,1976.4 3347.47,2007.57 3307.5,2026C 3268.2,2039.81 3234.36,2031.64 3206,2001.5C 3186.33,1974.51 3179.67,1944.51 3186,1911.5C 3195.44,1872.89 3219.61,1849.89 3258.5,1842.5 Z M 3270.5,1876.5 C 3287.04,1874.81 3302.7,1877.64 3317.5,1885C 3312.56,1884.51 3307.56,1884.01 3302.5,1883.5C 3295.79,1883.51 3289.46,1885.01 3283.5,1888C 3279.72,1892.68 3279.55,1897.51 3283,1902.5C 3284.21,1904.05 3285.71,1905.22 3287.5,1906C 3306.65,1902.32 3320.48,1909.16 3329,1926.5C 3339.11,1958.46 3328.61,1980.62 3297.5,1993C 3273.19,2001.4 3250.53,1998.4 3229.5,1984C 3209.13,1963.14 3203.96,1938.98 3214,1911.5C 3221.01,1898.16 3231.51,1888.66 3245.5,1883C 3253.76,1880.02 3262.09,1877.85 3270.5,1876.5 Z"/></g>
<g><path style="opacity:0.972" fill="#402314" d="M 917.5,1900.5 C 956.426,1898.92 977.926,1917.58 982,1956.5C 983.997,1978.85 978.663,1999.18 966,2017.5C 949.974,2033.95 930.808,2039.45 908.5,2034C 907.333,2032.83 906.167,2031.67 905,2030.5C 904.333,2026.83 904.333,2023.17 905,2019.5C 905.833,2017.33 907.333,2015.83 909.5,2015C 914.852,2014.48 920.185,2013.81 925.5,2013C 928.798,2012.51 931.798,2011.35 934.5,2009.5C 901.021,2005.67 867.521,2002 834,1998.5C 829.291,1999.56 827.291,2002.56 828,2007.5C 823.927,2013.63 818.427,2015.13 811.5,2012C 808.82,2009.64 807.487,2006.64 807.5,2003C 809.103,1987.47 810.936,1971.97 813,1956.5C 821.548,1924.64 841.714,1913.14 873.5,1922C 876.759,1923.21 879.592,1925.04 882,1927.5C 890.141,1913.53 901.974,1904.53 917.5,1900.5 Z M 921.5,1934.5 C 932.148,1933.99 941.314,1937.32 949,1944.5C 955.361,1955.03 957.195,1966.36 954.5,1978.5C 934.848,1976.33 915.181,1974.17 895.5,1972C 897.075,1959.93 901.742,1949.26 909.5,1940C 913.284,1937.47 917.284,1935.64 921.5,1934.5 Z M 847.5,1953.5 C 857.574,1951.47 866.074,1954.14 873,1961.5C 874.511,1964.52 875.011,1967.52 874.5,1970.5C 862.204,1968.87 849.87,1967.37 837.5,1966C 838.864,1960.15 842.197,1955.98 847.5,1953.5 Z"/></g>
<g><path style="opacity:0.966" fill="#402314" d="M 860.5,2118.5 C 866.262,2118.15 871.928,2118.65 877.5,2120C 879.049,2121.21 880.215,2122.71 881,2124.5C 884.457,2423.65 982.124,2686.65 1174,2913.5C 1367.32,3133.79 1609.48,3268.29 1900.5,3317C 2179.14,3357.4 2440.81,3308.4 2685.5,3170C 2920.92,3031.01 3091.76,2835.51 3198,2583.5C 3257.79,2436.41 3287.79,2283.41 3288,2124.5C 3289.26,2121.57 3291.43,2119.74 3294.5,2119C 3300.25,2118.15 3305.92,2118.48 3311.5,2120C 3312.67,2121.17 3313.83,2122.33 3315,2123.5C 3314.65,2404.88 3229.65,2656.88 3060,2879.5C 2896.87,3087.84 2688.37,3231.01 2434.5,3309C 2197.54,3377.23 1960.87,3376.23 1724.5,3306C 1458.69,3221.43 1244.19,3066.6 1081,2841.5C 929.951,2626.99 854.284,2387.99 854,2124.5C 855.436,2121.56 857.603,2119.56 860.5,2118.5 Z M 2136.5,2199.5 C 2119.96,2200.28 2103.3,2201.45 2086.5,2203C 1958.02,2216.47 1853.86,2273.3 1774,2373.5C 1684.39,2493.25 1646.72,2627.92 1661,2777.5C 1667.59,2834.31 1686.26,2886.64 1717,2934.5C 1738.76,2965.92 1766.92,2989.76 1801.5,3006C 1833.31,3019.48 1864.65,3018.48 1895.5,3003C 1920.99,2988.19 1942.82,2969.02 1961,2945.5C 1989.54,2907.8 2013.54,2867.13 2033,2823.5C 2072.55,2733.52 2104.55,2640.86 2129,2545.5C 2158.39,2432.23 2183.55,2318.07 2204.5,2203C 2181.89,2200.84 2159.23,2199.67 2136.5,2199.5 Z"/></g>
<g><path style="opacity:0.983" fill="#402314" d="M 2457.5,2376.5 C 2492.98,2375.81 2514.15,2392.81 2521,2427.5C 2521.75,2461.51 2505.58,2482.35 2472.5,2490C 2437.63,2492.12 2416.13,2476.28 2408,2442.5C 2405.88,2406.36 2422.38,2384.36 2457.5,2376.5 Z"/></g>
</svg>
